<mxfile host="app.diagrams.net" modified="2024-01-26T04:47:42.167Z" agent="Mozilla/5.0 (Windows NT 10.0; Win64; x64) AppleWebKit/537.36 (KHTML, like Gecko) Chrome/120.0.0.0 Safari/537.36" etag="qwcEjbMtAiPBVTd9OKAh" version="23.0.0" type="device">
  <diagram name="Page-1" id="sprAWKePOnELeRiYOYp5">
    <mxGraphModel dx="1900" dy="1657" grid="1" gridSize="10" guides="1" tooltips="1" connect="1" arrows="1" fold="1" page="1" pageScale="1" pageWidth="850" pageHeight="1100" math="0" shadow="0">
      <root>
        <mxCell id="0" />
        <mxCell id="1" parent="0" />
        <mxCell id="vE3U3ECPnu8Z_xFZWSYU-4" value="" style="edgeStyle=orthogonalEdgeStyle;rounded=0;orthogonalLoop=1;jettySize=auto;html=1;" edge="1" parent="1" source="vE3U3ECPnu8Z_xFZWSYU-1" target="vE3U3ECPnu8Z_xFZWSYU-3">
          <mxGeometry relative="1" as="geometry" />
        </mxCell>
        <mxCell id="vE3U3ECPnu8Z_xFZWSYU-1" value="&lt;font style=&quot;font-size: 16px;&quot;&gt;Admin&lt;/font&gt;" style="rounded=0;whiteSpace=wrap;html=1;" vertex="1" parent="1">
          <mxGeometry x="-100" y="20" width="150" height="30" as="geometry" />
        </mxCell>
        <mxCell id="vE3U3ECPnu8Z_xFZWSYU-9" value="" style="edgeStyle=orthogonalEdgeStyle;rounded=0;orthogonalLoop=1;jettySize=auto;html=1;" edge="1" parent="1" source="vE3U3ECPnu8Z_xFZWSYU-3" target="vE3U3ECPnu8Z_xFZWSYU-8">
          <mxGeometry relative="1" as="geometry" />
        </mxCell>
        <mxCell id="vE3U3ECPnu8Z_xFZWSYU-3" value="&lt;font style=&quot;font-size: 16px;&quot;&gt;Login&lt;/font&gt;" style="ellipse;whiteSpace=wrap;html=1;rounded=0;" vertex="1" parent="1">
          <mxGeometry x="165" y="-5" width="115" height="80" as="geometry" />
        </mxCell>
        <mxCell id="vE3U3ECPnu8Z_xFZWSYU-5" value="" style="endArrow=classic;html=1;rounded=0;" edge="1" parent="1">
          <mxGeometry width="50" height="50" relative="1" as="geometry">
            <mxPoint x="280" y="34.5" as="sourcePoint" />
            <mxPoint x="410" y="35" as="targetPoint" />
          </mxGeometry>
        </mxCell>
        <mxCell id="vE3U3ECPnu8Z_xFZWSYU-6" value="Check For Login" style="text;html=1;strokeColor=none;fillColor=none;align=center;verticalAlign=middle;whiteSpace=wrap;rounded=0;" vertex="1" parent="1">
          <mxGeometry x="280" y="10" width="110" height="30" as="geometry" />
        </mxCell>
        <mxCell id="vE3U3ECPnu8Z_xFZWSYU-7" value="&lt;font style=&quot;font-size: 16px;&quot;&gt;AdminMst&lt;/font&gt;" style="rounded=0;whiteSpace=wrap;html=1;" vertex="1" parent="1">
          <mxGeometry x="410" y="5" width="120" height="60" as="geometry" />
        </mxCell>
        <mxCell id="vE3U3ECPnu8Z_xFZWSYU-13" value="" style="edgeStyle=orthogonalEdgeStyle;rounded=0;orthogonalLoop=1;jettySize=auto;html=1;" edge="1" parent="1" source="vE3U3ECPnu8Z_xFZWSYU-8" target="vE3U3ECPnu8Z_xFZWSYU-12">
          <mxGeometry relative="1" as="geometry" />
        </mxCell>
        <mxCell id="vE3U3ECPnu8Z_xFZWSYU-26" value="" style="edgeStyle=orthogonalEdgeStyle;rounded=0;orthogonalLoop=1;jettySize=auto;html=1;" edge="1" parent="1" source="vE3U3ECPnu8Z_xFZWSYU-8" target="vE3U3ECPnu8Z_xFZWSYU-25">
          <mxGeometry relative="1" as="geometry" />
        </mxCell>
        <mxCell id="vE3U3ECPnu8Z_xFZWSYU-8" value="&lt;span style=&quot;font-size: 16px;&quot;&gt;Manage Category&lt;/span&gt;" style="ellipse;whiteSpace=wrap;html=1;rounded=0;" vertex="1" parent="1">
          <mxGeometry x="165" y="155" width="115" height="80" as="geometry" />
        </mxCell>
        <mxCell id="vE3U3ECPnu8Z_xFZWSYU-10" value="" style="endArrow=classic;html=1;rounded=0;exitX=0;exitY=0.75;exitDx=0;exitDy=0;" edge="1" parent="1" source="vE3U3ECPnu8Z_xFZWSYU-7">
          <mxGeometry width="50" height="50" relative="1" as="geometry">
            <mxPoint x="390" y="50" as="sourcePoint" />
            <mxPoint x="280" y="50" as="targetPoint" />
          </mxGeometry>
        </mxCell>
        <mxCell id="vE3U3ECPnu8Z_xFZWSYU-11" value="&lt;font style=&quot;font-size: 16px;&quot;&gt;Reply&lt;/font&gt;" style="text;html=1;strokeColor=none;fillColor=none;align=center;verticalAlign=middle;whiteSpace=wrap;rounded=0;" vertex="1" parent="1">
          <mxGeometry x="290" y="50" width="110" height="30" as="geometry" />
        </mxCell>
        <mxCell id="vE3U3ECPnu8Z_xFZWSYU-12" value="&lt;font style=&quot;font-size: 16px;&quot;&gt;Category Mst&lt;/font&gt;" style="whiteSpace=wrap;html=1;rounded=0;" vertex="1" parent="1">
          <mxGeometry x="400" y="165" width="120" height="60" as="geometry" />
        </mxCell>
        <mxCell id="vE3U3ECPnu8Z_xFZWSYU-14" value="&lt;span style=&quot;font-size: 16px;&quot;&gt;Insert Data&lt;/span&gt;" style="text;html=1;strokeColor=none;fillColor=none;align=center;verticalAlign=middle;whiteSpace=wrap;rounded=0;" vertex="1" parent="1">
          <mxGeometry x="280" y="165" width="110" height="30" as="geometry" />
        </mxCell>
        <mxCell id="vE3U3ECPnu8Z_xFZWSYU-17" value="" style="endArrow=classic;html=1;rounded=0;exitX=0;exitY=0.75;exitDx=0;exitDy=0;" edge="1" parent="1" source="vE3U3ECPnu8Z_xFZWSYU-12">
          <mxGeometry width="50" height="50" relative="1" as="geometry">
            <mxPoint x="410" y="210" as="sourcePoint" />
            <mxPoint x="280" y="210" as="targetPoint" />
          </mxGeometry>
        </mxCell>
        <mxCell id="vE3U3ECPnu8Z_xFZWSYU-18" value="&lt;font style=&quot;font-size: 16px;&quot;&gt;Reply&lt;/font&gt;" style="text;html=1;strokeColor=none;fillColor=none;align=center;verticalAlign=middle;whiteSpace=wrap;rounded=0;" vertex="1" parent="1">
          <mxGeometry x="290" y="220" width="110" height="30" as="geometry" />
        </mxCell>
        <mxCell id="vE3U3ECPnu8Z_xFZWSYU-19" value="" style="endArrow=classic;html=1;rounded=0;entryX=0;entryY=0.5;entryDx=0;entryDy=0;" edge="1" parent="1" target="vE3U3ECPnu8Z_xFZWSYU-8">
          <mxGeometry width="50" height="50" relative="1" as="geometry">
            <mxPoint y="195" as="sourcePoint" />
            <mxPoint x="160" y="192.5" as="targetPoint" />
          </mxGeometry>
        </mxCell>
        <mxCell id="vE3U3ECPnu8Z_xFZWSYU-20" value="" style="endArrow=none;html=1;rounded=0;entryX=0.677;entryY=1.047;entryDx=0;entryDy=0;entryPerimeter=0;" edge="1" parent="1" target="vE3U3ECPnu8Z_xFZWSYU-1">
          <mxGeometry width="50" height="50" relative="1" as="geometry">
            <mxPoint y="195" as="sourcePoint" />
            <mxPoint x="50" y="145" as="targetPoint" />
          </mxGeometry>
        </mxCell>
        <mxCell id="vE3U3ECPnu8Z_xFZWSYU-21" value="" style="endArrow=classic;html=1;rounded=0;" edge="1" parent="1">
          <mxGeometry width="50" height="50" relative="1" as="geometry">
            <mxPoint x="30" y="180" as="sourcePoint" />
            <mxPoint x="30" y="50" as="targetPoint" />
          </mxGeometry>
        </mxCell>
        <mxCell id="vE3U3ECPnu8Z_xFZWSYU-22" value="" style="endArrow=none;html=1;rounded=0;entryX=0.012;entryY=0.315;entryDx=0;entryDy=0;entryPerimeter=0;" edge="1" parent="1" target="vE3U3ECPnu8Z_xFZWSYU-8">
          <mxGeometry width="50" height="50" relative="1" as="geometry">
            <mxPoint x="30" y="180" as="sourcePoint" />
            <mxPoint x="80" y="130" as="targetPoint" />
          </mxGeometry>
        </mxCell>
        <mxCell id="vE3U3ECPnu8Z_xFZWSYU-23" value="&lt;span style=&quot;font-size: 16px;&quot;&gt;Response&lt;/span&gt;" style="text;html=1;strokeColor=none;fillColor=none;align=center;verticalAlign=middle;whiteSpace=wrap;rounded=0;" vertex="1" parent="1">
          <mxGeometry x="40" y="150" width="110" height="30" as="geometry" />
        </mxCell>
        <mxCell id="vE3U3ECPnu8Z_xFZWSYU-24" value="&lt;span style=&quot;font-size: 16px;&quot;&gt;ADD/EDIT&lt;/span&gt;" style="text;html=1;strokeColor=none;fillColor=none;align=center;verticalAlign=middle;whiteSpace=wrap;rounded=0;" vertex="1" parent="1">
          <mxGeometry x="40" y="195" width="110" height="30" as="geometry" />
        </mxCell>
        <mxCell id="vE3U3ECPnu8Z_xFZWSYU-25" value="&lt;span style=&quot;font-size: 16px;&quot;&gt;Manage Items&lt;/span&gt;" style="ellipse;whiteSpace=wrap;html=1;rounded=0;" vertex="1" parent="1">
          <mxGeometry x="165" y="315" width="115" height="80" as="geometry" />
        </mxCell>
        <mxCell id="vE3U3ECPnu8Z_xFZWSYU-27" value="" style="endArrow=classic;html=1;rounded=0;" edge="1" parent="1">
          <mxGeometry width="50" height="50" relative="1" as="geometry">
            <mxPoint x="-20" y="350" as="sourcePoint" />
            <mxPoint x="-20" y="50" as="targetPoint" />
          </mxGeometry>
        </mxCell>
        <mxCell id="vE3U3ECPnu8Z_xFZWSYU-28" value="" style="endArrow=none;html=1;rounded=0;entryX=0.012;entryY=0.315;entryDx=0;entryDy=0;entryPerimeter=0;" edge="1" parent="1">
          <mxGeometry width="50" height="50" relative="1" as="geometry">
            <mxPoint x="-20" y="350" as="sourcePoint" />
            <mxPoint x="163" y="350" as="targetPoint" />
          </mxGeometry>
        </mxCell>
        <mxCell id="vE3U3ECPnu8Z_xFZWSYU-29" value="&lt;span style=&quot;font-size: 16px;&quot;&gt;Response&lt;/span&gt;" style="text;html=1;strokeColor=none;fillColor=none;align=center;verticalAlign=middle;whiteSpace=wrap;rounded=0;" vertex="1" parent="1">
          <mxGeometry x="20" y="315" width="110" height="30" as="geometry" />
        </mxCell>
        <mxCell id="vE3U3ECPnu8Z_xFZWSYU-30" value="&lt;span style=&quot;font-size: 16px;&quot;&gt;Add/Edit&lt;br&gt;Items&lt;br&gt;&lt;/span&gt;" style="text;html=1;strokeColor=none;fillColor=none;align=center;verticalAlign=middle;whiteSpace=wrap;rounded=0;" vertex="1" parent="1">
          <mxGeometry x="20" y="365" width="110" height="30" as="geometry" />
        </mxCell>
        <mxCell id="vE3U3ECPnu8Z_xFZWSYU-36" value="" style="edgeStyle=orthogonalEdgeStyle;rounded=0;orthogonalLoop=1;jettySize=auto;html=1;" edge="1" parent="1">
          <mxGeometry relative="1" as="geometry">
            <mxPoint x="280" y="344" as="sourcePoint" />
            <mxPoint x="400" y="344" as="targetPoint" />
          </mxGeometry>
        </mxCell>
        <mxCell id="vE3U3ECPnu8Z_xFZWSYU-37" value="" style="endArrow=classic;html=1;rounded=0;exitX=0;exitY=0.75;exitDx=0;exitDy=0;" edge="1" parent="1">
          <mxGeometry width="50" height="50" relative="1" as="geometry">
            <mxPoint x="400" y="359" as="sourcePoint" />
            <mxPoint x="280" y="359" as="targetPoint" />
          </mxGeometry>
        </mxCell>
        <mxCell id="vE3U3ECPnu8Z_xFZWSYU-38" value="&lt;span style=&quot;font-size: 16px;&quot;&gt;Item Mst&lt;/span&gt;" style="whiteSpace=wrap;html=1;rounded=0;" vertex="1" parent="1">
          <mxGeometry x="400" y="325" width="120" height="60" as="geometry" />
        </mxCell>
        <mxCell id="vE3U3ECPnu8Z_xFZWSYU-39" value="" style="endArrow=classic;html=1;rounded=0;entryX=0;entryY=0.5;entryDx=0;entryDy=0;" edge="1" parent="1">
          <mxGeometry width="50" height="50" relative="1" as="geometry">
            <mxPoint x="-60" y="364" as="sourcePoint" />
            <mxPoint x="165" y="364" as="targetPoint" />
          </mxGeometry>
        </mxCell>
        <mxCell id="vE3U3ECPnu8Z_xFZWSYU-40" value="" style="endArrow=none;html=1;rounded=0;entryX=0.25;entryY=1;entryDx=0;entryDy=0;" edge="1" parent="1" target="vE3U3ECPnu8Z_xFZWSYU-1">
          <mxGeometry width="50" height="50" relative="1" as="geometry">
            <mxPoint x="-62" y="360" as="sourcePoint" />
            <mxPoint x="-60" y="220" as="targetPoint" />
          </mxGeometry>
        </mxCell>
      </root>
    </mxGraphModel>
  </diagram>
</mxfile>
